<?xml version="1.0" standalone="no"?>
<!DOCTYPE svg PUBLIC "-//W3C//DTD SVG 20010904//EN"
 "http://www.w3.org/TR/2001/REC-SVG-20010904/DTD/svg10.dtd">
<svg version="1.0" xmlns="http://www.w3.org/2000/svg"
 width="800.000000pt" height="600.000000pt" viewBox="0 0 800.000000 600.000000"
 preserveAspectRatio="xMidYMid meet">

<g transform="translate(0.000000,600.000000) scale(0.100000,-0.100000)"
fill="#000000" stroke="none">
<path d="M4436 3351 c-15 -27 -64 -75 -102 -97 -10 -7 -16 -15 -12 -19 11 -11
93 40 113 71 l17 27 24 -30 c26 -33 57 -56 92 -67 37 -12 25 11 -19 36 -24 13
-51 41 -66 65 -14 24 -27 43 -29 43 -2 0 -10 -13 -18 -29z"/>
<path d="M3076 3318 c-8 -75 -7 -130 3 -124 4 3 11 27 15 54 9 67 22 80 89 93
103 18 97 33 97 -236 0 -259 4 -245 -71 -245 -21 0 -39 -4 -39 -10 0 -6 55
-10 145 -10 90 0 145 4 145 10 0 6 -16 10 -36 10 -76 0 -74 -7 -74 249 0 260
-6 245 87 234 66 -7 89 -27 98 -80 4 -21 10 -47 15 -58 10 -24 14 85 4 134
l-6 31 -233 0 -232 0 -7 -52z"/>
<path d="M3640 3355 c0 -19 96 -192 112 -201 7 -5 9 -2 6 7 -3 8 -20 58 -37
112 -29 87 -35 97 -57 97 -15 0 -24 -6 -24 -15z"/>
<path d="M3830 3360 c0 -5 10 -10 23 -10 13 0 31 -6 40 -13 16 -11 17 -34 15
-237 l-3 -225 -37 -9 c-21 -5 -38 -13 -38 -18 0 -4 89 -8 199 -8 l199 0 5 43
c17 119 19 157 9 157 -5 0 -12 -18 -16 -41 -16 -101 -54 -131 -164 -133 l-77
-1 -3 236 -2 237 22 6 c13 3 33 6 46 6 12 0 22 5 22 10 0 6 -47 10 -120 10
-73 0 -120 -4 -120 -10z"/>
</g>
</svg>
